<svg xmlns="http://www.w3.org/2000/svg" version="1.1" xmlns:xlink="http://www.w3.org/1999/xlink" width="512" height="512" x="0" y="0" viewBox="0 0 100 100" style="enable-background:new 0 0 512 512" xml:space="preserve" class="">
    <g>
        <g fill="#ffc100">
            <path d="M94.88 26.05C86.221 13.054 65.847 2.5 49.996 2.5 33.61 2.5 13.543 11.293 4.99 26.263c-1.428 2.522.413 5.59 3.229 5.59a3.734 3.734 0 0 0 3.242-1.88C18.894 16.977 36.866 9.972 49.996 9.972c13.436 0 31.488 9.447 38.667 20.214a3.744 3.744 0 0 0 5.19 1.04 3.746 3.746 0 0 0 1.027-5.176zM49.996 34.336c-15.211 0-27.593 13.276-27.593 29.594v3.976a3.724 3.724 0 0 0 3.723 3.723 3.727 3.727 0 0 0 3.735-3.723V63.93c0-12.209 9.02-22.136 20.135-22.136s20.147 9.94 20.147 22.136c0 12.662-10.18 19.48-15.864 27.726-1.722 2.482.106 5.844 3.068 5.844 1.188 0 2.349-.56 3.056-1.614 5.284-7.606 17.199-16.105 17.199-31.97 0-16.304-12.382-29.58-27.606-29.58z" fill="#ffc100" opacity="1" data-original="#ffc100"></path>
            <path d="M49.996 18.418c-32.17 0-52.65 36.065-41.123 59.121 8.913 17.853 36.906 12.222 36.906-9.62 0-5.07 1.321-10.194 4.217-10.194 3.269 0 5.644 4.07 4.336 9.287-.494 1.988.734 4.016 2.722 4.51a3.725 3.725 0 0 0 4.523-2.709c5.07-20.294-23.27-28.58-23.27-.907 0 14.01-17.398 17.052-22.776 6.284-5.177-10.34-1.614-26.085 8.273-36.612 6.991-7.432 16.518-11.702 26.192-11.702 19.2 0 36.065 16.852 36.065 36.066 0 9.1-1.388 14.25-5.284 19.72-1.2 1.668-.8 4.003.867 5.204a3.737 3.737 0 0 0 5.204-.867c5.537-7.753 6.658-15.211 6.658-24.044.013-24.35-20.855-43.537-43.51-43.537z" fill="#ffc100" opacity="1" data-original="#ffc100"></path>
        </g>
    </g>
</svg>